<svg width="213" height="339" viewBox="0 0 213 339" fill="none" xmlns="http://www.w3.org/2000/svg">
<path d="M191.25 -0.000122069C194.23 -0.000122069 196.988 0.551636 199.526 1.65515C202.065 2.75867 204.272 4.24841 206.148 6.12439C208.024 8.00037 209.568 10.2626 210.782 12.911C211.996 15.5594 212.548 18.3182 212.438 21.1874V317.812C212.438 320.792 211.886 323.551 210.782 326.089C209.679 328.627 208.189 330.834 206.313 332.71C204.437 334.586 202.175 336.131 199.526 337.345C196.878 338.558 194.119 339.11 191.25 339H21.7501C18.7706 339 16.0118 338.448 13.4738 337.345C10.9357 336.241 8.72864 334.751 6.85266 332.875C4.97668 330.999 3.43176 328.737 2.2179 326.089C1.00403 323.44 0.452271 320.682 0.562622 317.812V21.1874C0.562622 18.2079 1.11438 15.4491 2.2179 12.911C3.32141 10.3729 4.81116 8.16589 6.68713 6.28992C8.56311 4.41394 10.8253 2.86902 13.4738 1.65515C16.1222 0.441284 18.881 -0.110474 21.7501 -0.000122069H191.25ZM191.25 21.1874H21.7501V317.812H191.25V21.1874ZM85.3126 275.437H127.688V296.625H85.3126V275.437Z" fill="black"/>
</svg>
