<svg width="104" height="132" viewBox="0 0 104 132" fill="none" xmlns="http://www.w3.org/2000/svg">
<path d="M94.1875 0.375H9.8125C4.6416 0.375 0.4375 4.5791 0.4375 9.75V122.25C0.4375 127.421 4.6416 131.625 9.8125 131.625H94.1875C99.3584 131.625 103.562 127.421 103.562 122.25V9.75C103.562 4.5791 99.3584 0.375 94.1875 0.375ZM93.0156 121.078H10.9844V10.9219H93.0156V121.078ZM46.1406 105.844C46.1406 107.398 46.758 108.888 47.8568 109.987C48.9556 111.086 50.446 111.703 52 111.703C53.554 111.703 55.0444 111.086 56.1432 109.987C57.2421 108.888 57.8594 107.398 57.8594 105.844C57.8594 104.29 57.2421 102.799 56.1432 101.701C55.0444 100.602 53.554 99.9844 52 99.9844C50.446 99.9844 48.9556 100.602 47.8568 101.701C46.758 102.799 46.1406 104.29 46.1406 105.844Z" fill="#FEF9F9"/>
</svg>
