<svg width="150" height="100" viewBox="0 0 150 100" fill="none" xmlns="http://www.w3.org/2000/svg">
<path fill-rule="evenodd" clip-rule="evenodd" d="M20 12.5C20 11.837 20.2634 11.2011 20.7322 10.7322C21.2011 10.2634 21.837 10 22.5 10H127.5C128.163 10 128.799 10.2634 129.268 10.7322C129.737 11.2011 130 11.837 130 12.5V85H20V12.5ZM22.5 0C15.6 0 10 5.6 10 12.5V90H0V95C0 96.3261 0.526784 97.5979 1.46447 98.5355C2.40215 99.4732 3.67392 100 5 100H145C146.326 100 147.598 99.4732 148.536 98.5355C149.473 97.5979 150 96.3261 150 95V90H140V12.5C140 5.6 134.4 0 127.5 0H22.5Z" fill="white"/>
</svg>
