<svg width="339" height="227" viewBox="0 0 339 227" fill="none" xmlns="http://www.w3.org/2000/svg">
<path d="M282.5 198.25C298.038 198.25 310.609 185.538 310.609 170L310.75 28.75C310.75 13.2125 298.038 0.5 282.5 0.5H56.5C40.9625 0.5 28.25 13.2125 28.25 28.75V170C28.25 185.538 40.9625 198.25 56.5 198.25H14.125C6.35625 198.25 0 204.606 0 212.375C0 220.144 6.35625 226.5 14.125 226.5H324.875C332.644 226.5 339 220.144 339 212.375C339 204.606 332.644 198.25 324.875 198.25H282.5ZM70.625 28.75H268.375C276.144 28.75 282.5 35.1062 282.5 42.875V155.875C282.5 163.644 276.144 170 268.375 170H70.625C62.8562 170 56.5 163.644 56.5 155.875V42.875C56.5 35.1062 62.8562 28.75 70.625 28.75Z" fill="black"/>
</svg>
