<svg width="24" height="24" viewBox="0 0 24 24" fill="none" xmlns="http://www.w3.org/2000/svg">
<g filter="url(#filter0_d_11_2)">
<path d="M18.4232 7.7789C18.4232 7.7789 18.4546 7.75597 18.5143 7.72778C18.5444 7.71563 18.5814 7.69836 18.6256 7.68896C18.6695 7.67515 18.7204 7.67059 18.7767 7.66382C18.8328 7.66506 18.895 7.66285 18.9595 7.67874C19.0259 7.68606 19.0903 7.7188 19.1593 7.74588C19.2228 7.78484 19.2948 7.81883 19.3532 7.87602C19.3835 7.90282 19.4161 7.9281 19.4454 7.95739L19.5282 8.05147C19.5872 8.11226 19.6319 8.18368 19.6824 8.25083C19.7354 8.31686 19.7719 8.39133 19.8075 8.46399C19.8424 8.53735 19.8717 8.61071 19.8883 8.68449C19.9078 8.75715 19.9236 8.82651 19.9364 8.89089C19.9496 8.95513 19.9512 9.01702 19.9562 9.07048C19.9595 9.1245 19.9613 9.17161 19.9612 9.21085C19.9616 9.2889 19.9568 9.33435 19.9568 9.33435L19.9296 9.34361C19.9296 9.34361 19.9028 9.30893 19.8647 9.2469C19.8453 9.21596 19.8236 9.1781 19.8001 9.13445C19.7761 9.09121 19.7544 9.04009 19.7249 8.98842C19.696 8.93661 19.6669 8.87997 19.6386 8.81946C19.6237 8.78976 19.6116 8.75702 19.596 8.72635C19.579 8.69664 19.5652 8.66432 19.5495 8.6324C19.5202 8.56761 19.4975 8.49397 19.464 8.4289C19.4322 8.36245 19.4034 8.28854 19.3601 8.23149L19.2993 8.14003C19.2776 8.11171 19.2533 8.08739 19.2306 8.06073C19.1865 8.00409 19.1333 7.9672 19.0846 7.92258C19.0317 7.88997 18.9806 7.85157 18.9268 7.83292C18.8746 7.80639 18.8216 7.79658 18.7724 7.7836C18.7228 7.77862 18.6762 7.77158 18.635 7.77503C18.5933 7.77448 18.5576 7.78208 18.5274 7.78525C18.4677 7.79645 18.4349 7.80957 18.4349 7.80957L18.4232 7.7789Z" fill="#1E1E1E"/>
<path d="M11.1044 1.43138C11.1044 1.43138 13.363 -1.78922 14.6806 1.43138C14.6806 1.43138 16.3746 0.948536 17.0335 2.91251C17.0335 2.91251 18.8215 2.85642 18.7274 3.86644C18.6334 4.87647 18.0759 5.72252 18.731 5.80444C19.3863 5.8865 19.8568 5.72721 19.9508 5.9752C20.0449 6.22318 20.0449 10.9114 19.5744 11.8218C19.1039 12.7322 18.0687 13.5179 16.9394 13.6301C16.9394 13.6301 15.3395 18.0069 10.728 14.8646C10.728 14.8646 3.76373 15.7703 4.79898 10.0428C4.79898 10.0428 2.35207 5.50369 6.0225 3.45061C9.6927 1.39739 8.93978 0.791872 11.1044 1.43138Z" fill="#FF0084"/>
<path d="M11.9876 2.90424C11.9876 2.90424 12.008 2.85078 12.0522 2.76305C12.0754 2.72036 12.1022 2.66648 12.1389 2.61053C12.1736 2.55223 12.2168 2.49048 12.2647 2.42333C12.314 2.35799 12.3684 2.28725 12.4304 2.21804C12.4924 2.14855 12.5599 2.07782 12.6348 2.01178C12.7068 1.94063 12.7889 1.88067 12.8712 1.81685C12.9548 1.75551 13.044 1.70246 13.1321 1.64609C13.2231 1.59774 13.3134 1.5451 13.4048 1.50048C13.4971 1.45986 13.5885 1.41717 13.6795 1.38982C13.7715 1.36785 13.8611 1.3492 13.9465 1.33815C14.032 1.32903 14.1134 1.33 14.1881 1.33028C14.3373 1.32641 14.4785 1.3586 14.5641 1.37683C14.6498 1.39686 14.715 1.41441 14.715 1.41441V1.44812C14.715 1.44812 14.6497 1.46995 14.5668 1.49758C14.5255 1.51181 14.4669 1.52673 14.41 1.5422C14.3816 1.5516 14.3468 1.55519 14.3153 1.56638C14.2838 1.57715 14.2488 1.58862 14.2143 1.59815C14.18 1.60824 14.1432 1.61874 14.1062 1.62951C14.0694 1.63946 14.0301 1.64595 13.9916 1.65949C13.9148 1.68754 13.833 1.71033 13.7481 1.73105C13.6637 1.75357 13.5772 1.78037 13.487 1.80041C13.3978 1.82444 13.3108 1.86271 13.2211 1.89366C13.1357 1.93621 13.0483 1.97572 12.9659 2.02352C12.8851 2.07464 12.8016 2.11857 12.728 2.17549C12.6907 2.20284 12.6524 2.22743 12.6175 2.25603C12.5826 2.28477 12.5486 2.31295 12.5155 2.34044C12.4493 2.39584 12.3899 2.45387 12.3355 2.50816C12.2825 2.56425 12.2339 2.61633 12.1943 2.66648C12.1527 2.7147 12.121 2.76139 12.0924 2.79786C12.0384 2.87371 12.012 2.92082 12.012 2.92082L11.9876 2.90424Z" fill="#1E1E1E"/>
<path d="M12.5921 2.15684C12.5921 2.15684 12.6175 2.16637 12.662 2.18308C12.6846 2.19151 12.7108 2.20146 12.7425 2.2161C12.7441 2.2161 12.7613 2.2284 12.766 2.24539C12.7709 2.26349 12.7723 2.27537 12.7646 2.28311C12.759 2.29374 12.7386 2.30673 12.7237 2.30369C12.7171 2.30328 12.7098 2.30024 12.7082 2.29955L12.7051 2.29844C12.6966 2.29554 12.6878 2.2925 12.6789 2.28946C12.6614 2.28311 12.643 2.27661 12.6238 2.26971C12.4704 2.21555 12.2696 2.13542 12.071 2.04908C11.9721 2.00528 11.8664 1.97834 11.7762 1.93082C11.6866 1.88122 11.6096 1.81864 11.5459 1.75868C11.4827 1.69748 11.4322 1.64098 11.3994 1.59483C11.3662 1.55007 11.3493 1.51899 11.3493 1.51899L11.3612 1.48846C11.3612 1.48846 11.392 1.4839 11.4422 1.48542C11.4928 1.48569 11.5616 1.49536 11.6415 1.5136C11.7208 1.53322 11.8106 1.5632 11.9 1.61266C11.9887 1.66432 12.0739 1.74307 12.1659 1.80455C12.2572 1.86796 12.3492 1.92944 12.4337 1.99147C12.5189 2.05156 12.5974 2.11069 12.6648 2.16015C12.6816 2.17245 12.6977 2.18419 12.7131 2.19524C12.7206 2.20063 12.728 2.20588 12.7351 2.21099L12.7378 2.21293C12.7378 2.21293 12.7329 2.21085 12.7283 2.21127C12.7174 2.20989 12.7009 2.22439 12.6992 2.23669C12.6988 2.24788 12.692 2.25451 12.6946 2.27081C12.6958 2.28518 12.7096 2.29485 12.7076 2.29264C12.6815 2.27109 12.6585 2.25216 12.6398 2.23669C12.6015 2.20533 12.5796 2.18737 12.5796 2.18737L12.5921 2.15684Z" fill="#1E1E1E"/>
<path d="M8.21373 2.18273C8.12418 2.31646 8.0469 2.4636 7.97971 2.61556C7.91275 2.76781 7.8569 2.9271 7.8167 3.09163C7.77639 3.2559 7.75136 3.42582 7.74847 3.59617C7.7443 3.76651 7.76445 3.93671 7.80547 4.09904L7.80825 4.11009L7.80408 4.12197C7.66239 4.53325 7.57168 4.97299 7.5192 5.41452C7.46706 5.85689 7.45953 6.30657 7.50274 6.7488C7.5448 7.1913 7.64385 7.62454 7.79249 8.03112C7.94067 8.44157 8.12221 8.8331 8.33792 9.19561C8.55376 9.55743 8.80597 9.8883 9.0934 10.1672C9.38025 10.4467 9.70255 10.6731 10.0472 10.8312C10.3916 10.9899 10.7573 11.0799 11.126 11.1062C11.1721 11.11 11.2182 11.113 11.2645 11.1134C11.3084 11.1138 11.3633 11.1184 11.3933 11.1134C11.41 11.1115 11.4232 11.1054 11.4245 11.1039C11.4242 11.1007 11.4157 11.119 11.418 11.1162C11.4197 11.1068 11.4036 11.0565 11.3819 11.0178C11.2893 10.8496 11.1508 10.6907 11.0176 10.5389C10.7452 10.2352 10.4544 9.9495 10.1627 9.66574L9.28027 8.81983C9.13325 8.67781 8.98646 8.5351 8.84188 8.38576C8.76959 8.31061 8.69799 8.23504 8.62767 8.14966C8.60937 8.12714 8.59407 8.10821 8.57334 8.07906L8.52838 8.01261C8.49606 7.96205 8.46733 7.91245 8.44057 7.86203C8.2281 7.45461 8.1251 6.98863 8.09452 6.52223C8.06567 6.05458 8.11699 5.58196 8.23412 5.1367C8.29251 4.91386 8.36666 4.69724 8.45389 4.48918C8.47486 4.43655 8.49873 4.38584 8.52178 4.33459L8.53916 4.29618L8.55051 4.27228L8.55978 4.25432L8.59685 4.18235C8.61875 4.13593 8.65362 4.0826 8.68397 4.03217C8.71444 3.97968 8.75024 3.93754 8.78326 3.89002C8.92228 3.70835 9.09942 3.56232 9.29301 3.46838C9.48799 3.37678 9.69629 3.3381 9.89984 3.34141C10.1036 3.34501 10.3029 3.38631 10.4943 3.45055C10.6873 3.51659 10.8666 3.59934 11.0508 3.71677L10.8835 3.73653L11.057 3.56342C11.1177 3.50954 11.177 3.45359 11.2389 3.40151C11.3025 3.35205 11.3632 3.29762 11.4298 3.25314C11.4954 3.20699 11.5607 3.1603 11.6296 3.12051C11.6968 3.07727 11.7673 3.0408 11.8376 3.00446C11.9081 2.96868 11.9807 2.9376 12.0535 2.90831C12.1271 2.88095 12.2008 2.85429 12.2764 2.83481C12.3512 2.81188 12.4281 2.79861 12.5044 2.78466L12.6198 2.76864L12.7358 2.76049C12.8132 2.75786 12.8908 2.75703 12.9681 2.76352C13.0454 2.76822 13.1226 2.77803 13.199 2.79295C13.2754 2.80663 13.3514 2.825 13.426 2.84918C13.501 2.8717 13.5746 2.90029 13.647 2.93166C13.7195 2.96288 13.7905 2.99894 13.8603 3.03803C13.93 3.07741 13.9979 3.12106 14.0645 3.16817C14.132 3.21708 14.1932 3.26405 14.2619 3.32953L14.1486 3.2979C14.4553 3.21818 14.7725 3.16472 15.0966 3.19442C15.2581 3.20879 15.4215 3.24623 15.5774 3.31793C15.7336 3.38811 15.8807 3.49836 16.0007 3.64093C16.1211 3.78336 16.2129 3.95619 16.2747 4.13828C16.3366 4.32077 16.3718 4.51115 16.39 4.70069C16.4081 4.89051 16.4089 5.0802 16.3981 5.26767C16.3928 5.36147 16.3841 5.45486 16.3729 5.5477C16.3613 5.64123 16.3478 5.73131 16.3284 5.82718L16.2006 5.72578L16.3369 5.6049C16.3802 5.56166 16.4245 5.51966 16.4669 5.47517C16.5076 5.42875 16.5514 5.38551 16.5897 5.33647C16.6289 5.28825 16.6687 5.24045 16.7043 5.18851C16.7421 5.1385 16.7758 5.08503 16.8096 5.03143C16.8433 4.97782 16.8744 4.92187 16.9046 4.86537C16.9336 4.80804 16.9623 4.75029 16.9866 4.68978C17.0133 4.63065 17.0339 4.56807 17.0551 4.50604C17.0755 4.44345 17.0931 4.37963 17.1082 4.31483C17.1224 4.2499 17.1359 4.18428 17.1447 4.11769C17.1544 4.05138 17.1615 3.9841 17.1647 3.91668C17.1691 3.84926 17.1702 3.78143 17.1681 3.7136C17.1646 3.57807 17.1508 3.4424 17.1268 3.30895C17.1024 3.17605 17.069 3.04328 17.0211 2.92033L17.0458 2.90416C17.1026 3.02822 17.1432 3.15947 17.1758 3.2943C17.2084 3.42914 17.2283 3.5684 17.2379 3.7089C17.243 3.77908 17.245 3.84981 17.2435 3.92055C17.243 3.99128 17.2386 4.06202 17.2314 4.13233C17.2252 4.20293 17.2141 4.2727 17.2019 4.34233C17.1889 4.41182 17.1732 4.48034 17.1545 4.54803C17.0792 4.81826 16.9615 5.0726 16.8108 5.29336C16.7745 5.35014 16.7342 5.40237 16.6942 5.45528C16.655 5.50902 16.6107 5.55641 16.569 5.60738C16.5258 5.65615 16.4806 5.70216 16.4363 5.74982L16.2974 5.88286L16.1238 6.04919L16.1697 5.78146C16.1837 5.69925 16.1947 5.6089 16.2027 5.52159C16.2107 5.43345 16.2162 5.34503 16.2184 5.25662C16.2232 5.07992 16.2169 4.90322 16.1951 4.73109C16.1524 4.38833 16.0438 4.05759 15.8446 3.83213C15.6469 3.60404 15.3663 3.50126 15.0803 3.48385C14.7925 3.46437 14.4971 3.51977 14.2085 3.6028L14.1488 3.61993L14.0952 3.57116C14.0492 3.52944 13.9875 3.48219 13.9295 3.44282C13.8701 3.40275 13.8089 3.36531 13.7463 3.33188C13.6835 3.29859 13.6197 3.26806 13.5548 3.24194C13.4899 3.2157 13.4241 3.1918 13.3573 3.1737C13.2908 3.15449 13.2238 3.13805 13.1561 3.12659C13.0887 3.11388 13.0206 3.10573 12.9523 3.10213C12.8842 3.09675 12.8158 3.09813 12.7476 3.10089L12.6454 3.10863L12.5437 3.12355C12.4763 3.13667 12.4085 3.14842 12.3421 3.16955C12.2752 3.1871 12.2096 3.21155 12.1441 3.23628C12.0791 3.26308 12.0144 3.29113 11.9511 3.32387C11.888 3.35716 11.8246 3.39018 11.7638 3.43025C11.7016 3.46644 11.6421 3.50982 11.5824 3.55237C11.522 3.5934 11.4657 3.64355 11.4067 3.68804C11.3493 3.73542 11.2939 3.78695 11.2372 3.83614L11.0742 3.99598L10.9962 4.07265L10.9069 4.01587C10.602 3.82163 10.2407 3.68514 9.89498 3.67477C9.7212 3.66911 9.54997 3.69909 9.39206 3.76982C9.23566 3.84346 9.09282 3.95605 8.97534 4.10484C8.94812 4.14366 8.91556 4.18027 8.89216 4.22048C8.86725 4.26137 8.84188 4.29522 8.81663 4.34633L8.77874 4.41762L8.76924 4.43544L8.76692 4.43986C8.77133 4.43116 8.76693 4.44 8.76739 4.43917L8.76322 4.44801L8.74653 4.48366C8.72441 4.53118 8.70135 4.57829 8.68131 4.62692C8.59743 4.81978 8.52607 5.0201 8.4693 5.22595C8.35553 5.63722 8.30317 6.07268 8.32448 6.50358C8.34626 6.93254 8.44022 7.36343 8.62431 7.72512C8.6476 7.77015 8.67227 7.8134 8.6966 7.85277L8.73993 7.91825C8.74966 7.93221 8.76646 7.95445 8.78094 7.97241C8.84223 8.04839 8.91128 8.12327 8.98056 8.19691C9.12004 8.34404 9.26451 8.48785 9.40944 8.63098L10.2845 9.48849C10.5751 9.7775 10.8649 10.0683 11.1413 10.3832C11.278 10.5442 11.4157 10.6993 11.5297 10.909C11.5553 10.9657 11.588 11.0188 11.5898 11.1235C11.5914 11.1774 11.5572 11.2501 11.5161 11.2762C11.4769 11.3042 11.443 11.3109 11.413 11.3153C11.3489 11.3223 11.3093 11.3151 11.2589 11.3146C11.2108 11.3135 11.1628 11.3097 11.1147 11.3052C10.7305 11.2724 10.3489 11.1731 9.99056 11.0022C9.63199 10.832 9.29799 10.5911 9.00315 10.2968C8.70842 10.002 8.45285 9.65552 8.23609 9.28016C8.01956 8.90438 7.83918 8.50015 7.69425 8.08113C7.54654 7.65991 7.45073 7.21312 7.41354 6.76012C7.37519 6.30726 7.38886 5.8497 7.44748 5.40168C7.50691 4.95365 7.60319 4.5135 7.75391 4.09448L7.75264 4.11755C7.71197 3.94749 7.69344 3.76996 7.70004 3.59409C7.70525 3.41809 7.73341 3.24416 7.77673 3.07699C7.82006 2.90969 7.87892 2.74874 7.94878 2.59567C8.0191 2.4426 8.09846 2.29602 8.19195 2.16077L8.21373 2.18273Z" fill="#1E1E1E"/>
<path d="M4.81149 10.0353C4.81149 10.0353 4.83084 10.0718 4.87579 10.1276C4.89757 10.1557 4.92688 10.187 4.95955 10.223C4.99465 10.2567 5.03277 10.2956 5.07888 10.332C5.12255 10.3714 5.17573 10.4057 5.22856 10.445C5.28579 10.4781 5.34082 10.5207 5.40477 10.5521C5.46675 10.5871 5.53163 10.6204 5.59917 10.6507C5.66521 10.6842 5.73495 10.7113 5.80458 10.7379C5.94406 10.7912 6.08911 10.8221 6.22222 10.8606C6.28838 10.882 6.3507 10.909 6.41106 10.9324C6.47142 10.9556 6.52807 10.9804 6.58009 11.0062C6.63257 11.0316 6.68077 11.0548 6.7234 11.0754C6.76615 11.0974 6.80334 11.118 6.83392 11.1368C6.89509 11.1735 6.92985 11.2006 6.92985 11.2006L6.92568 11.2339C6.92568 11.2339 6.88617 11.2458 6.81759 11.2559C6.78318 11.2612 6.74171 11.2657 6.69397 11.2691C6.64647 11.2712 6.59226 11.2762 6.53456 11.2699C6.4764 11.2664 6.41361 11.2596 6.34769 11.2492C6.28096 11.243 6.21307 11.2203 6.14286 11.1984C6.07301 11.1746 6.00245 11.1435 5.93282 11.1039C5.86297 11.0656 5.79091 11.0323 5.72174 10.9885C5.6513 10.9492 5.58133 10.9098 5.51483 10.8636C5.44694 10.8218 5.38334 10.7727 5.32275 10.7241C5.261 10.6785 5.2062 10.6234 5.15302 10.576C5.10297 10.5221 5.05408 10.4752 5.01412 10.4236C4.97218 10.3754 4.938 10.3258 4.9073 10.2833C4.87845 10.2382 4.85354 10.1991 4.8364 10.1639C4.80072 10.0954 4.7867 10.0506 4.7867 10.0506L4.81149 10.0353Z" fill="#1E1E1E"/>
<path d="M10.4731 14.8725C10.9558 14.7216 11.4372 14.5645 11.9124 14.388L12.2679 14.2533C12.3859 14.2076 12.5034 14.1596 12.6197 14.1096C12.7364 14.0602 12.851 14.0064 12.9645 13.9507L13.1311 13.8616C13.1855 13.8305 13.2367 13.7957 13.2896 13.7633L13.3186 13.7454L13.3519 13.7486C13.4233 13.7554 13.4988 13.7582 13.5725 13.7624C13.6464 13.7673 13.7214 13.7659 13.7957 13.7678C13.9445 13.7725 14.094 13.7659 14.243 13.7617C14.392 13.7601 14.5411 13.743 14.69 13.7373L14.9134 13.7272C14.9877 13.722 15.0622 13.716 15.1367 13.7128C15.2112 13.7094 15.2857 13.7045 15.3604 13.703C15.4352 13.7012 15.5099 13.6992 15.5843 13.6917C15.7332 13.6795 15.8828 13.6721 16.0326 13.6638C16.1076 13.6606 16.1829 13.6594 16.2575 13.6504L16.4823 13.6328C16.6327 13.6233 16.7836 13.6141 16.9364 13.6136L16.9415 13.6468C16.7967 13.7018 16.6499 13.7478 16.5027 13.7937L16.2812 13.8591C16.2073 13.8814 16.1325 13.8959 16.0579 13.9123C15.9082 13.9424 15.7583 13.9733 15.6078 13.9996C15.4574 14.0274 15.3057 14.0405 15.1542 14.0568C15.0784 14.0653 15.0026 14.0707 14.9267 14.0769C14.8508 14.0829 14.7746 14.0807 14.6986 14.0829L14.4703 14.0831C14.3943 14.0832 14.3182 14.08 14.2421 14.0751C14.09 14.0653 13.9381 14.0626 13.786 14.0468C13.6335 14.0345 13.4834 14.0198 13.3283 13.9973L13.3906 13.9827C13.3313 14.015 13.2722 14.0501 13.2128 14.0798L13.0339 14.1625C12.9142 14.2128 12.7943 14.2608 12.6737 14.3037C12.5532 14.3474 12.4325 14.3885 12.3113 14.4274C12.1904 14.4667 12.0689 14.504 11.9472 14.5386C11.4599 14.6769 10.9712 14.8018 10.4789 14.9054L10.4731 14.8725Z" fill="#1E1E1E"/>
<path d="M11.1413 12.7268C11.1413 12.7268 11.1454 12.7376 11.1544 12.7561C11.1651 12.7716 11.1806 12.7941 11.2004 12.823C11.2251 12.8482 11.2551 12.8788 11.2895 12.914C11.3248 12.947 11.3721 12.976 11.4189 13.0117C11.4433 13.0281 11.4659 13.049 11.4941 13.0635C11.5221 13.078 11.5512 13.093 11.581 13.1085C11.6409 13.1385 11.7012 13.1743 11.7662 13.2056C11.8336 13.232 11.9033 13.2592 11.9741 13.287C12.0451 13.3137 12.1138 13.3479 12.1879 13.3689C12.2624 13.3884 12.3362 13.4096 12.4097 13.4268C12.483 13.4442 12.5544 13.4634 12.6221 13.4871C12.6886 13.5151 12.7565 13.5322 12.8178 13.56C12.88 13.5846 12.9383 13.6106 12.9917 13.6374C13.2058 13.7404 13.3431 13.8563 13.3431 13.8563L13.3375 13.8894C13.3375 13.8894 13.1749 13.9217 12.9392 13.8993C12.8801 13.8947 12.8167 13.8869 12.7499 13.8754C12.683 13.8649 12.6128 13.8532 12.5427 13.8247C12.4726 13.7972 12.4014 13.7638 12.3301 13.7276C12.2587 13.6912 12.1855 13.658 12.113 13.6229C12.0397 13.5903 11.9695 13.5431 11.8992 13.5047C11.8298 13.4638 11.7615 13.4235 11.6953 13.3844C11.6315 13.3385 11.571 13.2907 11.5142 13.2461C11.486 13.2237 11.4585 13.2019 11.432 13.1808C11.4055 13.1598 11.3832 13.1316 11.3602 13.1089C11.3158 13.0603 11.2727 13.0212 11.24 12.9777C11.2096 12.932 11.1829 12.8922 11.161 12.8594C11.1431 12.8206 11.1309 12.7897 11.1224 12.7695C11.1173 12.7488 11.1147 12.7377 11.1147 12.7377L11.1413 12.7268Z" fill="#1E1E1E"/>
<path d="M11.3622 11.2319C11.3622 11.2319 11.3562 11.2367 11.3468 11.2496C11.3378 11.2618 11.3276 11.2837 11.3368 11.299C11.3436 11.3162 11.3726 11.3376 11.4074 11.3536C11.443 11.3701 11.4867 11.3837 11.5354 11.3945C11.7311 11.4379 12.0028 11.4542 12.2733 11.4679C12.4087 11.4751 12.5458 11.4606 12.6727 11.4698C12.7994 11.4813 12.9169 11.5088 13.0178 11.5378C13.1185 11.5689 13.2024 11.5997 13.2611 11.6284C13.3197 11.6558 13.3531 11.6776 13.3531 11.6776L13.3518 11.7112C13.3518 11.7112 13.2123 11.7791 13.0043 11.8076C12.9004 11.8228 12.7792 11.8311 12.6503 11.8195C12.5215 11.8055 12.386 11.7628 12.2496 11.7357C12.1132 11.7065 11.9768 11.6765 11.85 11.6378C11.723 11.6011 11.6054 11.5575 11.5065 11.5095C11.457 11.4857 11.4122 11.4601 11.3737 11.4307C11.3366 11.4009 11.2999 11.3695 11.289 11.3162C11.2839 11.2903 11.2903 11.2647 11.2991 11.2503C11.3078 11.2354 11.3167 11.226 11.3242 11.2196C11.3388 11.207 11.3485 11.2028 11.3485 11.2028L11.3622 11.2319Z" fill="#1E1E1E"/>
<path d="M10.6137 9.9498C10.6137 9.9498 10.941 9.92176 11.5104 9.83749C11.7951 9.7948 12.1402 9.73788 12.5335 9.65609C12.9265 9.57348 13.3689 9.46848 13.8399 9.3085C14.0748 9.22768 14.3173 9.13277 14.5565 9.00692C14.676 8.94406 14.7945 8.87277 14.9063 8.78753C15.0183 8.70215 15.1222 8.60365 15.2031 8.47904L15.2381 8.42792C15.2516 8.40996 15.2602 8.39545 15.2843 8.371C15.2891 8.36713 15.2914 8.36368 15.3052 8.35608C15.2975 8.31533 15.4224 8.38689 15.4026 8.4264C15.4033 8.45085 15.4002 8.45596 15.3994 8.46218L15.3954 8.47655C15.3905 8.49175 15.3863 8.50266 15.3819 8.51344C15.3731 8.53485 15.3641 8.55433 15.3551 8.57367C15.3188 8.65062 15.2808 8.72412 15.2418 8.79789C15.1635 8.94489 15.0815 9.09064 14.9971 9.2368C14.8282 9.52885 14.6493 9.82174 14.4609 10.1142C14.0822 10.6965 13.6736 11.286 13.187 11.8138C13.0645 11.9446 12.9362 12.0706 12.7972 12.1848C12.6587 12.2976 12.5063 12.4035 12.3346 12.4638C12.0242 12.5775 11.7096 12.7014 11.3869 12.7991C11.0645 12.8977 10.7341 12.9716 10.3997 13.0048C10.0655 13.0353 9.72768 13.0277 9.3975 12.9675C8.73518 12.8509 8.11641 12.5274 7.59612 12.1003C7.07606 11.668 6.64219 11.1532 6.28084 10.6211C6.09919 10.3474 5.94429 10.0642 5.82346 9.76634C5.70355 9.46903 5.62327 9.1575 5.59118 8.84956C5.55781 8.54148 5.58029 8.23838 5.64285 7.96704C5.70471 7.69489 5.80376 7.45436 5.91568 7.24727C6.14159 6.83199 6.41234 6.5467 6.64369 6.33837C6.87679 6.13045 7.07455 5.99465 7.21218 5.9101C7.35005 5.82569 7.42709 5.78894 7.42709 5.78894L7.43891 5.81961C7.43891 5.81961 7.36615 5.86368 7.23697 5.96149C7.10849 6.06013 6.9207 6.20823 6.70672 6.43093C6.59967 6.54187 6.48718 6.67242 6.37492 6.82398C6.26254 6.97498 6.1504 7.14822 6.05435 7.34826C5.9582 7.54775 5.87756 7.77418 5.83261 8.02231C5.78766 8.27015 5.77932 8.53886 5.81581 8.81226C5.88857 9.36086 6.14379 9.91499 6.49204 10.4129C6.53306 10.4746 6.5838 10.5394 6.62968 10.6033C6.67718 10.6638 6.72491 10.7246 6.77287 10.7859C6.86775 10.9123 6.97306 11.0286 7.07617 11.1501C7.28725 11.3867 7.51676 11.6094 7.7626 11.8118C8.25068 12.2224 8.82311 12.529 9.43933 12.6561C9.74715 12.72 10.0645 12.7352 10.3822 12.7141C10.7003 12.6902 11.0184 12.6282 11.3332 12.539C11.6482 12.4502 11.959 12.3346 12.275 12.2253C12.4188 12.1783 12.5538 12.0892 12.6847 11.9863C12.8151 11.8828 12.9395 11.765 13.0591 11.6411C13.5364 11.1403 13.9504 10.5638 14.3326 9.99456C14.5229 9.70859 14.7044 9.42137 14.8755 9.13526C14.961 8.99213 15.044 8.84928 15.1228 8.70644C15.1622 8.63515 15.201 8.56359 15.236 8.49285L15.2602 8.44104L15.2687 8.41991C15.269 8.41894 15.2695 8.41756 15.269 8.41922C15.2695 8.42032 15.2673 8.42018 15.268 8.43939C15.2492 8.47213 15.3676 8.54203 15.3563 8.50446C15.366 8.49907 15.3648 8.49893 15.366 8.4981C15.3627 8.50073 15.3483 8.51855 15.3384 8.53209L15.3056 8.57795C15.2109 8.71776 15.0912 8.82525 14.9712 8.91214C14.8503 8.99987 14.7258 9.0706 14.6014 9.13236C14.3525 9.25573 14.1047 9.34553 13.8655 9.42123C13.3863 9.57085 12.9403 9.6648 12.5443 9.73774C12.1481 9.80985 11.8012 9.85807 11.5153 9.89357C10.9433 9.96348 10.615 9.98324 10.615 9.98324L10.6137 9.9498Z" fill="#1E1E1E"/>
<path d="M16.235 5.80269C16.235 5.80269 16.2374 5.73334 16.2416 5.61218C16.2443 5.55139 16.2479 5.47776 16.2548 5.39293C16.2586 5.35038 16.2622 5.30535 16.2688 5.25672C16.2722 5.23226 16.2757 5.20767 16.2826 5.17866C16.2855 5.16982 16.2853 5.16554 16.2911 5.15283C16.2948 5.14578 16.294 5.14412 16.3021 5.13293C16.317 5.11981 16.3272 5.10199 16.3649 5.11843C16.3721 5.12229 16.3794 5.12989 16.3819 5.13335L16.3857 5.1397C16.3882 5.14412 16.3905 5.14882 16.3924 5.15352C16.397 5.16471 16.396 5.16484 16.3979 5.1712C16.4008 5.18184 16.4017 5.18916 16.403 5.1969C16.418 5.31308 16.4168 5.42319 16.4161 5.54545C16.4148 5.66647 16.4069 5.79316 16.3972 5.92413C16.377 6.18593 16.3436 6.46416 16.2947 6.74061C16.2714 6.87917 16.2429 7.01663 16.2132 7.15244C16.1834 7.28824 16.1476 7.42073 16.1036 7.54534C16.0583 7.66913 16.007 7.78614 15.9485 7.89058C15.8915 7.99599 15.8298 8.09049 15.7661 8.17117C15.6399 8.33391 15.5083 8.43905 15.4099 8.49155C15.361 8.51862 15.3215 8.53562 15.2936 8.54404C15.2661 8.55275 15.2514 8.55744 15.2514 8.55744L15.2386 8.52746C15.2386 8.52746 15.2836 8.48008 15.3507 8.3936C15.3843 8.35063 15.4221 8.29551 15.4625 8.23196C15.5026 8.16744 15.5437 8.09201 15.5861 8.00843C15.6277 7.92416 15.6696 7.83076 15.711 7.72964C15.7507 7.62741 15.7927 7.51965 15.8338 7.40581C15.8763 7.2928 15.9199 7.17454 15.9624 7.05242C16.0049 6.93029 16.0414 6.80236 16.0759 6.67333C16.1429 6.41457 16.196 6.1489 16.235 5.8976C16.2549 5.77189 16.2695 5.64962 16.2831 5.53371C16.2955 5.41946 16.3063 5.30424 16.3035 5.21403L16.3027 5.20187C16.3027 5.20187 16.3017 5.19565 16.3034 5.20132C16.3041 5.20325 16.3052 5.20519 16.3064 5.20671L16.3085 5.20892C16.3101 5.2114 16.3159 5.21859 16.322 5.22176C16.3546 5.23295 16.3607 5.22162 16.3714 5.21182C16.3759 5.20518 16.3731 5.20961 16.374 5.20781C16.374 5.2056 16.3715 5.21389 16.3702 5.21638C16.3638 5.23434 16.3579 5.25699 16.3528 5.27854C16.3424 5.3222 16.3344 5.36572 16.3268 5.40633C16.313 5.48854 16.301 5.56024 16.2912 5.61923C16.2732 5.73831 16.263 5.80628 16.263 5.80628L16.235 5.80269Z" fill="#1E1E1E"/>
<path d="M17.0769 4.57467C17.0769 4.57467 17.1075 4.5393 17.1695 4.48114C17.2317 4.42339 17.3253 4.34064 17.4587 4.26189C17.5256 4.22321 17.6029 4.18591 17.6925 4.16353C17.7814 4.14225 17.8853 4.13396 17.9903 4.17389C18.0949 4.21285 18.1935 4.29947 18.2667 4.41386C18.3407 4.52825 18.3932 4.66571 18.4331 4.8116C18.473 4.9568 18.5012 5.11595 18.5239 5.27317C18.5476 5.43204 18.5722 5.59617 18.5975 5.76499C18.6443 6.10401 18.685 6.46777 18.6782 6.85197C18.6723 7.23479 18.603 7.63929 18.4516 8.00678C18.3024 8.37578 18.0849 8.70141 17.8482 8.99484L17.6662 9.20981C17.6039 9.27888 17.5388 9.34354 17.4753 9.4104C17.3497 9.54704 17.2142 9.6646 17.0841 9.78935C16.8227 10.0314 16.5623 10.2562 16.3115 10.4801C16.058 10.6991 15.8094 10.9094 15.5598 11.0916C15.4976 11.1373 15.4362 11.1825 15.3727 11.2231C15.31 11.2648 15.249 11.3067 15.185 11.3418C15.1218 11.3778 15.0601 11.4139 14.9961 11.4419C14.933 11.472 14.8715 11.5023 14.8087 11.5239C14.5606 11.62 14.326 11.6657 14.1212 11.6902C13.9159 11.7169 13.7375 11.6718 13.5906 11.6761C13.4438 11.6825 13.3287 11.6294 13.2501 11.6294C13.1715 11.6294 13.1296 11.6294 13.1296 11.6294L13.1273 11.6507C13.1273 11.6507 13.1685 11.6693 13.2458 11.6529C13.323 11.6374 13.4362 11.6284 13.5804 11.5994C13.724 11.5686 13.8985 11.5399 14.0947 11.489C14.2918 11.4415 14.5086 11.3745 14.7312 11.2674C14.9538 11.1595 15.1792 11.005 15.4119 10.8161C15.6436 10.6257 15.8861 10.4146 16.139 10.1952C16.3935 9.97904 16.6599 9.75661 16.9279 9.53433C17.0582 9.42049 17.1952 9.31245 17.3191 9.18632C17.3822 9.12471 17.4472 9.06502 17.5089 9.00133L17.6887 8.80392C17.9212 8.53341 18.1321 8.23611 18.2778 7.90289C18.4254 7.57105 18.499 7.20564 18.5146 6.84382C18.5318 6.48144 18.4992 6.12515 18.4657 5.78764C18.4466 5.61841 18.428 5.45387 18.4099 5.29472C18.3924 5.13377 18.3714 4.98664 18.3385 4.84614C18.306 4.70688 18.2615 4.57771 18.1993 4.47285C18.1375 4.36799 18.0565 4.29118 17.9679 4.25278C17.8792 4.21382 17.786 4.21561 17.703 4.23122C17.6193 4.24752 17.5442 4.2793 17.4786 4.31329C17.3473 4.38264 17.2522 4.45917 17.1893 4.51264C17.1262 4.56679 17.0955 4.5994 17.0955 4.5994L17.0769 4.57467Z" fill="#1E1E1E"/>
<path d="M12.014 12.4535C12.014 12.4535 12.0146 12.4868 12.0367 12.5461C12.0584 12.6038 12.1058 12.6833 12.1917 12.7449C12.277 12.8072 12.3974 12.8489 12.5388 12.8625C12.6803 12.8775 12.8428 12.8655 13.0174 12.8304C13.1918 12.7986 13.3835 12.7471 13.5834 12.6952C13.7837 12.6409 13.9946 12.5833 14.2114 12.5169C14.6449 12.385 15.1037 12.2259 15.5485 12.0307C15.7697 11.9308 15.9885 11.8234 16.1914 11.6973C16.3914 11.5699 16.5886 11.4331 16.7213 11.2672C16.7553 11.2274 16.7831 11.1856 16.8043 11.1448C16.8345 11.0886 16.8644 11.0329 16.8941 10.9778C16.9303 10.9212 16.9661 10.8609 17.0023 10.8101C17.039 10.7608 17.0747 10.7096 17.1118 10.6652C17.2577 10.4803 17.4006 10.327 17.513 10.1749C17.6255 10.023 17.7059 9.87161 17.7461 9.7202C17.772 9.64615 17.7755 9.57044 17.7876 9.50123C17.788 9.43091 17.7958 9.36473 17.7909 9.30478C17.7865 9.24413 17.7825 9.18997 17.7792 9.143C17.7714 9.09603 17.7649 9.05596 17.7596 9.02364C17.7493 8.95774 17.7437 8.92265 17.7437 8.92265L17.7702 8.91077C17.7702 8.91077 17.7829 8.94379 17.8066 9.00554C17.8183 9.03704 17.8327 9.07572 17.8497 9.12145C17.8618 9.1698 17.8756 9.22534 17.8911 9.28751C17.9059 9.35051 17.9102 9.424 17.9206 9.50372C17.9182 9.58398 17.9245 9.67378 17.9064 9.76703C17.8806 9.95533 17.8024 10.1586 17.6906 10.3413C17.5806 10.5267 17.444 10.699 17.3162 10.8812C17.2519 10.9734 17.1927 11.0684 17.1396 11.1597C17.1123 11.2131 17.0834 11.2733 17.0557 11.3243C17.0194 11.3958 16.9768 11.4583 16.9313 11.513C16.7447 11.7277 16.5281 11.8625 16.3059 11.9819C16.0829 12.0985 15.8536 12.1977 15.6221 12.2855C15.1595 12.4613 14.6904 12.5974 14.2484 12.7075C14.0272 12.762 13.8131 12.8118 13.6089 12.8517C13.4038 12.8905 13.2129 12.9288 13.0303 12.9498C12.8489 12.9737 12.6794 12.9751 12.5305 12.9492C12.382 12.9252 12.2538 12.8714 12.1642 12.795C12.0733 12.7198 12.0256 12.6272 12.0055 12.5618C11.9954 12.5287 11.9905 12.5023 11.9882 12.4841C11.9861 12.4647 11.986 12.456 11.986 12.456L12.014 12.4535Z" fill="#1E1E1E"/>
<path d="M12.2281 8.02068C12.0176 8.12388 11.8027 8.21174 11.5848 8.28952C11.3629 8.36799 11.1378 8.43472 10.9094 8.48335C10.681 8.53239 10.4493 8.56513 10.2154 8.5661C10.0985 8.56914 9.9814 8.55836 9.8645 8.54262C9.74818 8.52217 9.63129 8.49675 9.5188 8.44923C9.40538 8.40626 9.29648 8.34243 9.19638 8.26203C9.09397 8.18425 9.00951 8.07732 8.93281 7.96528C8.90072 7.90477 8.86226 7.84509 8.83596 7.78292C8.80758 7.72379 8.78024 7.66203 8.75382 7.59766C8.70215 7.47028 8.655 7.33973 8.62673 7.19563C8.61167 7.12435 8.60507 7.04753 8.60797 6.96851C8.6104 6.88949 8.63183 6.80494 8.67087 6.73434C8.75267 6.59067 8.8779 6.52767 8.98588 6.4742C9.0964 6.42198 9.2053 6.38137 9.30169 6.32431C9.39912 6.26905 9.47999 6.19458 9.53061 6.09774L9.52192 6.1758C9.49412 6.06265 9.475 5.95503 9.45948 5.84285C9.44419 5.7315 9.43388 5.61877 9.42959 5.50521C9.42194 5.2785 9.43538 5.04447 9.50165 4.81914C9.53467 4.70696 9.58124 4.59796 9.64345 4.50056C9.70486 4.40248 9.78387 4.31848 9.87145 4.25507C9.95869 4.19083 10.0538 4.14358 10.1505 4.11567C10.2472 4.08376 10.3452 4.07215 10.4424 4.064L10.7187 4.05171C10.8115 4.04964 10.9042 4.04577 10.9973 4.04701C11.0901 4.04577 11.1841 4.05047 11.2781 4.05502L11.4204 4.06856L11.5642 4.09233C11.6606 4.11553 11.7587 4.14247 11.8536 4.19552C11.9497 4.24277 12.0379 4.32014 12.1127 4.40565C12.1884 4.49227 12.2458 4.59064 12.2994 4.68776C12.3515 4.78571 12.3968 4.88463 12.4407 4.98327L12.2157 4.99929C12.2798 4.79497 12.3536 4.60694 12.4428 4.41947C12.533 4.23421 12.635 4.05185 12.7805 3.89449C12.8537 3.81699 12.94 3.74529 13.0464 3.70191C13.1523 3.65797 13.2803 3.65853 13.3877 3.70412C13.5481 3.77306 13.7084 3.82832 13.8755 3.89491C14.041 3.96163 14.209 4.03251 14.3713 4.13018C14.5331 4.22716 14.6933 4.34583 14.8307 4.5101C14.899 4.59244 14.9607 4.68596 15.0102 4.79041C15.0593 4.89526 15.0931 5.01117 15.1123 5.1286C15.151 5.36609 15.1193 5.60108 15.0653 5.81246L15.0554 5.85252L15.0433 5.89245L15.0214 5.96456L14.9775 6.10879C14.9434 6.2066 14.9099 6.30649 14.8737 6.40264C14.7999 6.59315 14.7195 6.77993 14.6292 6.95953C14.5853 7.05016 14.5388 7.13899 14.4894 7.22575C14.4426 7.31417 14.3897 7.39803 14.3383 7.48285C14.2316 7.64919 14.1188 7.81041 13.9943 7.95934C13.8722 8.11034 13.7377 8.24918 13.5905 8.36951C13.4438 8.48708 13.2801 8.59539 13.0918 8.62109L13.0274 8.62868L12.9554 8.62689C12.9069 8.62841 12.8632 8.61252 12.8176 8.60492C12.7285 8.57715 12.6447 8.53294 12.5688 8.47534C12.4232 8.35873 12.3092 8.20014 12.2281 8.02068ZM12.2465 7.99208C12.34 8.15869 12.4665 8.30085 12.609 8.39645C12.6817 8.4419 12.7588 8.47313 12.8374 8.4897C12.8768 8.49178 12.9177 8.50269 12.9552 8.49675L13.012 8.49357L13.075 8.47976C13.2277 8.44149 13.3713 8.34133 13.501 8.22127C13.631 8.10081 13.7511 7.96169 13.8597 7.81027C13.9704 7.66121 14.0702 7.49998 14.1639 7.33448C14.2569 7.16842 14.3465 6.99904 14.4239 6.82166C14.5046 6.64648 14.5732 6.46412 14.6394 6.28121C14.6711 6.18961 14.6992 6.09843 14.7291 6.00642L14.7696 5.86081L14.7897 5.788L14.7988 5.7554L14.8062 5.72155C14.8482 5.54195 14.8635 5.35946 14.8344 5.19353C14.8078 5.02692 14.7339 4.87813 14.6273 4.7538C14.5211 4.62891 14.3859 4.52792 14.2411 4.44378C14.096 4.35937 13.9417 4.28643 13.7826 4.22081C13.6252 4.15505 13.4563 4.09343 13.2947 4.0209C13.2403 3.99852 13.1881 3.99576 13.1308 4.01593C13.0738 4.0372 13.0144 4.08058 12.9586 4.13722C12.8463 4.25161 12.7497 4.41007 12.6653 4.57572C12.5816 4.74164 12.5062 4.92345 12.4466 5.10084L12.3436 5.40739L12.2216 5.11686C12.1815 5.02126 12.1405 4.92704 12.0962 4.83904C12.051 4.75255 12.0041 4.66911 11.9482 4.60266C11.8921 4.53648 11.8318 4.47887 11.7586 4.44102C11.688 4.39861 11.6063 4.37415 11.5237 4.35205L11.3955 4.32801L11.2638 4.31254C11.1747 4.30646 11.0856 4.29983 10.995 4.299C10.9049 4.29569 10.8141 4.29748 10.7237 4.29748L10.4502 4.30356C10.2793 4.31143 10.1089 4.34943 9.97062 4.44931C9.8294 4.54436 9.72942 4.70572 9.67126 4.89223C9.6124 5.07928 9.59538 5.28955 9.59943 5.49844C9.60163 5.60316 9.60962 5.70857 9.62237 5.81315C9.63488 5.9169 9.65261 6.02397 9.67485 6.12109L9.68481 6.16461L9.66616 6.19914C9.59225 6.33605 9.47906 6.42972 9.36796 6.48954C9.25616 6.55212 9.14332 6.5908 9.03882 6.63791C8.9356 6.68433 8.83758 6.74015 8.78707 6.82801C8.73471 6.91353 8.73332 7.03911 8.75521 7.16317C8.77665 7.28806 8.81824 7.41336 8.86446 7.53466C8.8874 7.59462 8.91266 7.65527 8.94035 7.71647C8.96491 7.77808 8.99711 7.82823 9.02492 7.88515C9.09188 7.98711 9.16498 8.08588 9.25674 8.15911C9.34618 8.23481 9.44511 8.29698 9.55066 8.34036C9.65492 8.38816 9.76568 8.41565 9.87678 8.43859C9.98869 8.45696 10.1018 8.47091 10.2158 8.47133C10.4435 8.47727 10.6723 8.45199 10.8988 8.41013C11.1256 8.36882 11.3502 8.30928 11.5723 8.23785C11.7941 8.16587 12.0141 8.0834 12.2286 7.9849L12.2394 7.97992L12.2465 7.99208Z" fill="#1E1E1E"/>
<path d="M12.2371 8.01655C11.9544 8.08922 11.6637 8.11049 11.374 8.08645C11.3015 8.08024 11.2293 8.07029 11.1572 8.05716C11.0851 8.04404 11.0137 8.02622 10.9424 8.00633C10.8715 7.98436 10.8012 7.95991 10.7319 7.93034C10.6631 7.89981 10.5943 7.86776 10.5284 7.82769C10.4612 7.79081 10.3974 7.74494 10.3348 7.69783C10.3042 7.67283 10.2728 7.64879 10.2427 7.62268L10.1552 7.53965C10.0997 7.48052 10.0429 7.4218 9.99473 7.35356C9.94283 7.2889 9.89916 7.21665 9.85421 7.14522C9.81424 7.07034 9.7701 6.99726 9.73731 6.91741L9.68541 6.79901L9.6415 6.67661C9.60987 6.59579 9.59029 6.51028 9.56539 6.4267C9.54303 6.34228 9.52704 6.25608 9.50758 6.17056L9.49634 6.12096L9.52681 6.078C9.57268 6.01348 9.61555 5.95891 9.66305 5.90489C9.70893 5.84991 9.7584 5.80031 9.80671 5.74892C9.85733 5.70126 9.90645 5.65097 9.95894 5.60621C10.012 5.56255 10.0626 5.51406 10.1181 5.47483C10.1734 5.43518 10.2261 5.38973 10.2837 5.35491C10.3408 5.31885 10.3965 5.27934 10.4549 5.24632L10.6313 5.14934L10.8132 5.06728C10.8734 5.03758 10.9366 5.02017 10.9988 4.99779C11.0613 4.97665 11.1231 4.95178 11.1872 4.93894L11.3784 4.89238C11.4424 4.87967 11.5073 4.87248 11.5719 4.86392C11.6367 4.85591 11.7015 4.84582 11.7665 4.8472L11.9616 4.84333C12.0268 4.83864 12.0912 4.85093 12.1558 4.85618L12.3498 4.87677L12.4096 4.88312L12.4451 4.94073C12.4892 5.01202 12.515 5.06866 12.5433 5.13387C12.5704 5.19728 12.5945 5.26138 12.6152 5.32673C12.6361 5.39207 12.6544 5.45825 12.6685 5.52539C12.6856 5.5917 12.6958 5.65967 12.707 5.72723C12.7199 5.79451 12.724 5.86303 12.7312 5.93101C12.74 5.99884 12.7388 6.06736 12.7403 6.13533L12.7419 6.23729L12.7366 6.33883C12.7315 6.40625 12.7326 6.47422 12.722 6.54053L12.6947 6.73947C12.6844 6.80523 12.668 6.86947 12.6551 6.93427C12.6415 6.99892 12.6284 7.06358 12.6076 7.12533L12.551 7.31211C12.5346 7.37525 12.5064 7.43299 12.4839 7.49281L12.4128 7.67034C12.3592 7.78473 12.3033 7.89719 12.2463 8.00771L12.2426 8.01489L12.2371 8.01655ZM12.2238 7.98463C12.2583 7.8643 12.2953 7.74646 12.3314 7.62917L12.3755 7.44487C12.3887 7.38312 12.4078 7.32372 12.4173 7.26127L12.4509 7.07615C12.4638 7.01508 12.4695 6.9525 12.4771 6.89061C12.4837 6.82858 12.4937 6.7671 12.4976 6.70507L12.5064 6.51926C12.5121 6.45764 12.5063 6.39589 12.5069 6.33455L12.5056 6.24254L12.4976 6.15136C12.4924 6.09071 12.4882 6.02992 12.478 5.97052C12.4686 5.91097 12.4627 5.8506 12.4483 5.79285C12.4357 5.73455 12.4243 5.67584 12.4065 5.61989C12.3918 5.56255 12.373 5.50757 12.3533 5.45314C12.3345 5.39857 12.3126 5.34538 12.2892 5.29482C12.2673 5.24563 12.2374 5.19134 12.217 5.15887L12.3124 5.22284L12.1331 5.20543C12.0734 5.20212 12.0138 5.18816 11.954 5.19051L11.7746 5.18802C11.7146 5.18443 11.6551 5.19203 11.5956 5.19742C11.5362 5.20405 11.476 5.20488 11.4167 5.21331L11.2392 5.24522C11.1794 5.25309 11.1219 5.27285 11.0634 5.2886C11.0053 5.30628 10.946 5.31913 10.8897 5.34386L10.7186 5.41086L10.5518 5.49237C10.4963 5.52 10.4435 5.55496 10.3892 5.5859C10.3343 5.61574 10.2842 5.65622 10.2314 5.69076C10.1782 5.72488 10.1301 5.76826 10.079 5.80667C10.0286 5.84618 9.98153 5.89108 9.93275 5.93335C9.88653 5.97908 9.8388 6.02329 9.795 6.07206C9.7504 6.11862 9.70661 6.17139 9.67012 6.21864L9.68935 6.12621C9.7051 6.20648 9.71738 6.28827 9.7358 6.36757C9.75666 6.4459 9.77218 6.52699 9.79918 6.60256L9.83613 6.71778L9.8805 6.82872C9.90831 6.90401 9.94677 6.97212 9.98118 7.04285C10.0205 7.10986 10.0583 7.17838 10.1041 7.23944C10.1464 7.3041 10.1967 7.36033 10.2452 7.41835L10.3227 7.49986C10.3496 7.52569 10.3777 7.54946 10.4052 7.5746C10.4616 7.62185 10.5193 7.66841 10.5809 7.70667C10.6412 7.74798 10.705 7.7821 10.7691 7.81498C10.8336 7.84704 10.8999 7.87439 10.967 7.89953C11.0345 7.9226 11.1026 7.94402 11.1718 7.96087C11.241 7.97759 11.3107 7.99154 11.381 8.00177C11.6594 8.04197 11.9455 8.03824 12.2238 7.98463Z" fill="#1E1E1E"/>
<path d="M12.2231 7.98947C12.2231 7.98947 12.25 7.9425 12.2971 7.86044C12.3199 7.81886 12.3506 7.77036 12.3814 7.71234C12.4124 7.65473 12.4474 7.5898 12.4857 7.51893C12.5209 7.44571 12.561 7.36806 12.5997 7.28379C12.6364 7.19828 12.679 7.1111 12.7139 7.01605C12.7524 6.92308 12.7842 6.82347 12.8161 6.72372C12.8462 6.62315 12.872 6.51995 12.8889 6.41661C12.9046 6.313 12.9133 6.20952 12.9076 6.11157C12.9005 6.01404 12.8896 5.92161 12.8669 5.839C12.8472 5.75514 12.82 5.67874 12.7891 5.60621C12.7555 5.53575 12.7159 5.47179 12.6747 5.41418C12.5917 5.29924 12.5007 5.21497 12.4356 5.15611C12.3697 5.09781 12.3281 5.06645 12.3281 5.06645L12.3346 5.03371C12.3346 5.03371 12.3863 5.02708 12.4742 5.04449C12.5183 5.05278 12.5713 5.0677 12.6305 5.09353C12.6892 5.11992 12.7559 5.15487 12.8219 5.20972C12.8885 5.26304 12.956 5.33336 13.0152 5.42358C13.0749 5.5131 13.1217 5.62459 13.1504 5.74505C13.1796 5.86635 13.1815 5.9958 13.1722 6.12041C13.1615 6.24544 13.1395 6.36702 13.1081 6.48279C13.0786 6.59925 13.0403 6.70991 12.9983 6.81504C12.9556 6.91962 12.9097 7.01951 12.8598 7.11096C12.7643 7.29761 12.6578 7.45482 12.5676 7.58883C12.4729 7.71994 12.3953 7.82811 12.336 7.89802C12.2782 7.96972 12.2452 8.01075 12.2452 8.01075L12.2231 7.98947Z" fill="#1E1E1E"/>
</g>
<defs>
<filter id="filter0_d_11_2" x="0" y="0" width="24" height="24" filterUnits="userSpaceOnUse" color-interpolation-filters="sRGB">
<feFlood flood-opacity="0" result="BackgroundImageFix"/>
<feColorMatrix in="SourceAlpha" type="matrix" values="0 0 0 0 0 0 0 0 0 0 0 0 0 0 0 0 0 0 127 0" result="hardAlpha"/>
<feOffset dy="4"/>
<feGaussianBlur stdDeviation="2"/>
<feComposite in2="hardAlpha" operator="out"/>
<feColorMatrix type="matrix" values="0 0 0 0 0 0 0 0 0 0 0 0 0 0 0 0 0 0 0.25 0"/>
<feBlend mode="normal" in2="BackgroundImageFix" result="effect1_dropShadow_11_2"/>
<feBlend mode="normal" in="SourceGraphic" in2="effect1_dropShadow_11_2" result="shape"/>
</filter>
</defs>
</svg>
