<svg width="45" height="49" viewBox="0 0 45 49" fill="none" xmlns="http://www.w3.org/2000/svg">
<ellipse cx="22.5" cy="27.5" rx="22.5" ry="21.5" fill="black"/>
<g filter="url(#filter0_d_2_9)">
<path d="M18.4844 40.7188C17.8594 40.7188 17.3125 40.6823 16.8438 40.6094C16.3646 40.5469 15.9583 40.4688 15.625 40.375V36.3438C15.9583 36.4167 16.3177 36.4844 16.7031 36.5469C17.0781 36.6198 17.4792 36.6562 17.9062 36.6562C18.4688 36.6562 18.974 36.5469 19.4219 36.3281C19.8698 36.1198 20.224 35.7188 20.4844 35.125C20.7448 34.5312 20.875 33.6771 20.875 32.5625V11.1562H25.7188V32.5312C25.7188 34.4896 25.4115 36.0677 24.7969 37.2656C24.1927 38.474 23.3438 39.349 22.25 39.8906C21.1667 40.4427 19.9115 40.7188 18.4844 40.7188Z" fill="url(#paint0_diamond_2_9)" shape-rendering="crispEdges"/>
</g>
<defs>
<filter id="filter0_d_2_9" x="11.625" y="11.1562" width="18.0938" height="37.5625" filterUnits="userSpaceOnUse" color-interpolation-filters="sRGB">
<feFlood flood-opacity="0" result="BackgroundImageFix"/>
<feColorMatrix in="SourceAlpha" type="matrix" values="0 0 0 0 0 0 0 0 0 0 0 0 0 0 0 0 0 0 127 0" result="hardAlpha"/>
<feOffset dy="4"/>
<feGaussianBlur stdDeviation="2"/>
<feComposite in2="hardAlpha" operator="out"/>
<feColorMatrix type="matrix" values="0 0 0 0 0 0 0 0 0 0 0 0 0 0 0 0 0 0 0.25 0"/>
<feBlend mode="normal" in2="BackgroundImageFix" result="effect1_dropShadow_2_9"/>
<feBlend mode="normal" in="SourceGraphic" in2="effect1_dropShadow_2_9" result="shape"/>
</filter>
<radialGradient id="paint0_diamond_2_9" cx="0" cy="0" r="1" gradientUnits="userSpaceOnUse" gradientTransform="translate(30 18.5) rotate(90) scale(57.4821 53.4578)">
<stop stop-color="#00A99D"/>
<stop offset="1" stop-color="#00A99D" stop-opacity="0"/>
</radialGradient>
</defs>
</svg>
