<svg width="149" height="105" viewBox="0 0 149 105" fill="none" xmlns="http://www.w3.org/2000/svg">
<path d="M108.125 89.375C123.75 111.25 148.432 95.0937 142.5 73.75C133.594 41.6937 128.75 23.85 126.232 14.425C125.511 11.7262 123.921 9.34017 121.708 7.63632C119.494 5.93248 116.781 5.00588 113.988 5H33.5128C27.7753 5 22.7753 8.90625 21.3815 14.4687C16.1253 35.3937 11.4565 53.7625 5.9003 73.75C-0.0247042 95.0937 24.6503 111.25 40.2753 89.375" fill="white"/>
<path d="M108.125 89.375C123.75 111.25 148.432 95.0937 142.5 73.75C133.594 41.6937 128.75 23.85 126.232 14.425C125.511 11.7262 123.921 9.34017 121.708 7.63632C119.494 5.93248 116.781 5.00588 113.988 5H33.5128C27.7753 5 22.7753 8.90625 21.3815 14.4687C16.1253 35.3937 11.4565 53.7625 5.9003 73.75C-0.0247042 95.0937 24.6503 111.25 40.2753 89.375" stroke="white" stroke-width="9.375" stroke-linecap="round" stroke-linejoin="round"/>
<path d="M98.7503 5V17.5C98.7503 20.8152 97.4333 23.9946 95.0891 26.3388C92.7449 28.683 89.5655 30 86.2503 30H61.2503C57.9351 30 54.7557 28.683 52.4115 26.3388C50.0673 23.9946 48.7503 20.8152 48.7503 17.5V5M48.7503 80C52.0655 80 55.2449 78.683 57.5891 76.3388C59.9333 73.9946 61.2503 70.8152 61.2503 67.5C61.2503 64.1848 59.9333 61.0054 57.5891 58.6612C55.2449 56.317 52.0655 55 48.7503 55C45.4351 55 42.2557 56.317 39.9115 58.6612C37.5673 61.0054 36.2503 64.1848 36.2503 67.5C36.2503 70.8152 37.5673 73.9946 39.9115 76.3388C42.2557 78.683 45.4351 80 48.7503 80ZM98.7503 80C102.066 80 105.245 78.683 107.589 76.3388C109.933 73.9946 111.25 70.8152 111.25 67.5C111.25 64.1848 109.933 61.0054 107.589 58.6612C105.245 56.317 102.066 55 98.7503 55C95.4351 55 92.2557 56.317 89.9115 58.6612C87.5673 61.0054 86.2503 64.1848 86.2503 67.5C86.2503 70.8152 87.5673 73.9946 89.9115 76.3388C92.2557 78.683 95.4351 80 98.7503 80Z" fill="white"/>
<path d="M98.7503 5V17.5C98.7503 20.8152 97.4333 23.9946 95.0891 26.3388C92.7449 28.683 89.5655 30 86.2503 30H61.2503C57.9351 30 54.7557 28.683 52.4115 26.3388C50.0673 23.9946 48.7503 20.8152 48.7503 17.5V5M48.7503 80C52.0655 80 55.2449 78.683 57.5891 76.3388C59.9333 73.9946 61.2503 70.8152 61.2503 67.5C61.2503 64.1848 59.9333 61.0054 57.5891 58.6612C55.2449 56.317 52.0655 55 48.7503 55C45.4351 55 42.2557 56.317 39.9115 58.6612C37.5673 61.0054 36.2503 64.1848 36.2503 67.5C36.2503 70.8152 37.5673 73.9946 39.9115 76.3388C42.2557 78.683 45.4351 80 48.7503 80ZM98.7503 80C102.066 80 105.245 78.683 107.589 76.3388C109.933 73.9946 111.25 70.8152 111.25 67.5C111.25 64.1848 109.933 61.0054 107.589 58.6612C105.245 56.317 102.066 55 98.7503 55C95.4351 55 92.2557 56.317 89.9115 58.6612C87.5673 61.0054 86.2503 64.1848 86.2503 67.5C86.2503 70.8152 87.5673 73.9946 89.9115 76.3388C92.2557 78.683 95.4351 80 98.7503 80Z" stroke="black" stroke-width="9.375" stroke-linecap="round" stroke-linejoin="round"/>
</svg>
