<svg width="100" height="100" viewBox="0 0 100 100" fill="none" xmlns="http://www.w3.org/2000/svg">
<path d="M91.6667 36.0416C91.297 30.7728 88.9399 25.8411 85.0722 22.2442C81.2046 18.6473 76.1151 16.6536 70.8334 16.6666H29.1667C23.824 16.6593 18.6828 18.7049 14.8055 22.3806C10.9282 26.0563 8.61117 31.0811 8.33336 36.4166C8.30986 36.7773 8.30986 37.1392 8.33336 37.4999V68.7499C8.3223 70.6681 8.69196 72.5694 9.42093 74.3438C10.1499 76.1181 11.2237 77.7301 12.5801 79.0865C13.9365 80.4429 15.5485 81.5167 17.3228 82.2457C19.0972 82.9746 20.9985 83.3443 22.9167 83.3332C28.875 83.3332 32.5834 78.9166 36.2084 74.6249C37.5417 73.0832 38.9167 71.4582 40.375 70.0416C42.3097 68.6244 44.4831 67.5659 46.7917 66.9166C48.9233 66.6666 51.0768 66.6666 53.2084 66.9166C55.517 67.5659 57.6903 68.6244 59.625 70.0416C61.0834 71.4582 62.4584 73.0832 63.7917 74.6249C67.4167 78.7916 71.125 83.3332 77.0834 83.3332C79.0016 83.3443 80.9029 82.9746 82.6772 82.2457C84.4515 81.5167 86.0636 80.4429 87.42 79.0865C88.7764 77.7301 89.8501 76.1181 90.5791 74.3438C91.3081 72.5694 91.6777 70.6681 91.6667 68.7499V37.4999C91.6892 37.1391 91.6892 36.7773 91.6667 36.4166V36.0416ZM83.3334 68.7499C83.3334 70.4075 82.6749 71.9972 81.5028 73.1693C80.3307 74.3414 78.741 74.9999 77.0834 74.9999C75 74.9999 72.9167 72.3332 70.1667 69.2499C68.75 67.6249 67.1667 65.7082 65.375 63.9999C62.3581 61.5693 58.8669 59.7954 55.125 58.7916C51.7357 58.1803 48.2644 58.1803 44.875 58.7916C41.1331 59.7954 37.642 61.5693 34.625 63.9999C32.8334 65.7082 31.25 67.6249 29.8334 69.2499C27.25 72.3332 25 74.9999 22.9167 74.9999C21.2591 74.9999 19.6694 74.3414 18.4973 73.1693C17.3252 71.9972 16.6667 70.4075 16.6667 68.7499V37.4999C16.687 37.2921 16.687 37.0827 16.6667 36.8749C16.8272 33.6692 18.2147 30.6481 20.5417 28.4374C22.8687 26.2267 25.957 24.9959 29.1667 24.9999H70.8334C73.956 24.9863 76.9706 26.1419 79.284 28.2394C81.5974 30.3368 83.0419 33.2242 83.3334 36.3332V36.8332C83.3126 37.055 83.3126 37.2782 83.3334 37.4999V68.7499Z" fill="white"/>
<path d="M66.6667 54.1666C68.9679 54.1666 70.8333 52.3011 70.8333 49.9999C70.8333 47.6987 68.9679 45.8333 66.6667 45.8333C64.3655 45.8333 62.5 47.6987 62.5 49.9999C62.5 52.3011 64.3655 54.1666 66.6667 54.1666Z" fill="white"/>
<path d="M75 45.8333C77.3012 45.8333 79.1666 43.9679 79.1666 41.6667C79.1666 39.3655 77.3012 37.5 75 37.5C72.6988 37.5 70.8333 39.3655 70.8333 41.6667C70.8333 43.9679 72.6988 45.8333 75 45.8333Z" fill="white"/>
<path d="M66.6667 37.5001C68.9679 37.5001 70.8333 35.6346 70.8333 33.3334C70.8333 31.0322 68.9679 29.1667 66.6667 29.1667C64.3655 29.1667 62.5 31.0322 62.5 33.3334C62.5 35.6346 64.3655 37.5001 66.6667 37.5001Z" fill="white"/>
<path d="M58.3334 45.8333C60.6345 45.8333 62.5 43.9679 62.5 41.6667C62.5 39.3655 60.6345 37.5 58.3334 37.5C56.0322 37.5 54.1667 39.3655 54.1667 41.6667C54.1667 43.9679 56.0322 45.8333 58.3334 45.8333Z" fill="white"/>
<path d="M33.3333 49.9999C37.9357 49.9999 41.6667 46.269 41.6667 41.6666C41.6667 37.0642 37.9357 33.3333 33.3333 33.3333C28.731 33.3333 25 37.0642 25 41.6666C25 46.269 28.731 49.9999 33.3333 49.9999Z" fill="white"/>
</svg>
