<svg width="339" height="220" viewBox="0 0 339 220" fill="none" xmlns="http://www.w3.org/2000/svg">
<path d="M322.468 48.7516C321.78 47.1109 321.109 45.4953 320.44 43.9076C313.608 18.9123 290.74 0.538086 263.578 0.538086H75.8201C49.9766 0.538086 28.0191 17.1716 20.0632 40.315C18.8734 43.0356 17.71 45.8555 16.4964 48.7516C-2.46972 93.9266 1.11361 133.715 1.11361 188.062C1.11361 222.499 43.3509 230.744 60.9153 203.79C65.8474 196.221 83.9322 171.123 101.712 143.8C107.206 146.742 113.343 148.277 119.576 148.269C150.777 148.269 151.064 123.526 171.154 123.526C171.71 123.526 172.19 123.481 172.618 123.404C173.046 123.481 173.525 123.526 174.082 123.526C194.173 123.526 194.459 148.269 225.66 148.269C230.361 148.269 234.859 147.408 239.013 145.844C256.5 172.367 273.939 196.411 278.748 203.79C296.312 230.743 338.55 221.593 338.55 188.062C338.55 133.715 341.434 93.9266 322.468 48.7516Z" fill="#2B3B47"/>
</svg>
