<svg width="116" height="32" viewBox="0 0 116 32" fill="none" xmlns="http://www.w3.org/2000/svg">
<g filter="url(#filter0_d_1_3)">
<path d="M6.36328 23.0391C5.89453 23.0391 5.48438 23.0117 5.13281 22.957C4.77344 22.9102 4.46875 22.8516 4.21875 22.7812V19.7578C4.46875 19.8125 4.73828 19.8633 5.02734 19.9102C5.30859 19.9648 5.60938 19.9922 5.92969 19.9922C6.35156 19.9922 6.73047 19.9102 7.06641 19.7461C7.40234 19.5898 7.66797 19.2891 7.86328 18.8438C8.05859 18.3984 8.15625 17.7578 8.15625 16.9219V0.867188H11.7891V16.8984C11.7891 18.3672 11.5586 19.5508 11.0977 20.4492C10.6445 21.3555 10.0078 22.0117 9.1875 22.418C8.375 22.832 7.43359 23.0391 6.36328 23.0391ZM31.6523 9.41016C31.6523 10.7305 31.4883 11.9336 31.1602 13.0195C30.832 14.0977 30.332 15.0273 29.6602 15.8086C28.9961 16.5898 28.1523 17.1914 27.1289 17.6133C26.1055 18.0273 24.8945 18.2344 23.4961 18.2344C22.0977 18.2344 20.8867 18.0273 19.8633 17.6133C18.8398 17.1914 17.9922 16.5898 17.3203 15.8086C16.6562 15.0273 16.1602 14.0938 15.832 13.0078C15.5039 11.9219 15.3398 10.7148 15.3398 9.38672C15.3398 7.61328 15.6289 6.07031 16.207 4.75781C16.793 3.4375 17.6914 2.41406 18.9023 1.6875C20.1133 0.960938 21.6523 0.597656 23.5195 0.597656C25.3789 0.597656 26.9062 0.960938 28.1016 1.6875C29.3047 2.41406 30.1953 3.4375 30.7734 4.75781C31.3594 6.07812 31.6523 7.62891 31.6523 9.41016ZM19.1484 9.41016C19.1484 10.6055 19.2969 11.6367 19.5938 12.5039C19.8984 13.3633 20.3711 14.0273 21.0117 14.4961C21.6523 14.957 22.4805 15.1875 23.4961 15.1875C24.5273 15.1875 25.3633 14.957 26.0039 14.4961C26.6445 14.0273 27.1094 13.3633 27.3984 12.5039C27.6953 11.6367 27.8438 10.6055 27.8438 9.41016C27.8438 7.61328 27.5078 6.19922 26.8359 5.16797C26.1641 4.13672 25.0586 3.62109 23.5195 3.62109C22.4961 3.62109 21.6602 3.85547 21.0117 4.32422C20.3711 4.78516 19.8984 5.44922 19.5938 6.31641C19.2969 7.17578 19.1484 8.20703 19.1484 9.41016ZM45.3164 13.2422C45.3164 14.2578 45.0703 15.1406 44.5781 15.8906C44.0859 16.6406 43.3672 17.2188 42.4219 17.625C41.4844 18.0312 40.3438 18.2344 39 18.2344C38.4062 18.2344 37.8242 18.1953 37.2539 18.1172C36.6914 18.0391 36.1484 17.9258 35.625 17.7773C35.1094 17.6211 34.6172 17.4297 34.1484 17.2031V13.8281C34.9609 14.1875 35.8047 14.5117 36.6797 14.8008C37.5547 15.0898 38.4219 15.2344 39.2812 15.2344C39.875 15.2344 40.3516 15.1562 40.7109 15C41.0781 14.8438 41.3438 14.6289 41.5078 14.3555C41.6719 14.082 41.7539 13.7695 41.7539 13.418C41.7539 12.9883 41.6094 12.6211 41.3203 12.3164C41.0312 12.0117 40.6328 11.7266 40.125 11.4609C39.625 11.1953 39.0586 10.9102 38.4258 10.6055C38.0273 10.418 37.5938 10.1914 37.125 9.92578C36.6562 9.65234 36.2109 9.32031 35.7891 8.92969C35.3672 8.53906 35.0195 8.06641 34.7461 7.51172C34.4805 6.94922 34.3477 6.27734 34.3477 5.49609C34.3477 4.47266 34.582 3.59766 35.0508 2.87109C35.5195 2.14453 36.1875 1.58984 37.0547 1.20703C37.9297 0.816406 38.9609 0.621094 40.1484 0.621094C41.0391 0.621094 41.8867 0.726562 42.6914 0.9375C43.5039 1.14062 44.3516 1.4375 45.2344 1.82812L44.0625 4.65234C43.2734 4.33203 42.5664 4.08594 41.9414 3.91406C41.3164 3.73438 40.6797 3.64453 40.0312 3.64453C39.5781 3.64453 39.1914 3.71875 38.8711 3.86719C38.5508 4.00781 38.3086 4.21094 38.1445 4.47656C37.9805 4.73438 37.8984 5.03516 37.8984 5.37891C37.8984 5.78516 38.0156 6.12891 38.25 6.41016C38.4922 6.68359 38.8516 6.94922 39.3281 7.20703C39.8125 7.46484 40.4141 7.76562 41.1328 8.10938C42.0078 8.52344 42.7539 8.95703 43.3711 9.41016C43.9961 9.85547 44.4766 10.3828 44.8125 10.9922C45.1484 11.5938 45.3164 12.3438 45.3164 13.2422ZM53.7539 7.92188L57.3281 0.867188H61.2422L55.5586 11.332V18H51.9492V11.4492L46.2656 0.867188H50.2031L53.7539 7.92188ZM66.9727 18H63.3984V0.867188H73.2188V3.84375H66.9727V8.26172H72.7852V11.2266H66.9727V18ZM76.5703 18V0.867188H80.2031V15H87.1523V18H76.5703ZM90.1406 18V0.867188H93.7734V18H90.1406ZM111.938 18H107.789L103.805 11.5195L99.8203 18H95.9297L101.613 9.16406L96.293 0.867188H100.301L103.992 7.03125L107.613 0.867188H111.527L106.148 9.36328L111.938 18Z" fill="url(#paint0_diamond_1_3)" shape-rendering="crispEdges"/>
</g>
<defs>
<filter id="filter0_d_1_3" x="0.21875" y="0.597656" width="115.719" height="30.4414" filterUnits="userSpaceOnUse" color-interpolation-filters="sRGB">
<feFlood flood-opacity="0" result="BackgroundImageFix"/>
<feColorMatrix in="SourceAlpha" type="matrix" values="0 0 0 0 0 0 0 0 0 0 0 0 0 0 0 0 0 0 127 0" result="hardAlpha"/>
<feOffset dy="4"/>
<feGaussianBlur stdDeviation="2"/>
<feComposite in2="hardAlpha" operator="out"/>
<feColorMatrix type="matrix" values="0 0 0 0 0 0 0 0 0 0 0 0 0 0 0 0 0 0 0.25 0"/>
<feBlend mode="normal" in2="BackgroundImageFix" result="effect1_dropShadow_1_3"/>
<feBlend mode="normal" in="SourceGraphic" in2="effect1_dropShadow_1_3" result="shape"/>
</filter>
<radialGradient id="paint0_diamond_1_3" cx="0" cy="0" r="1" gradientUnits="userSpaceOnUse" gradientTransform="translate(60 6) rotate(90) scale(30 165.903)">
<stop stop-color="#00A99D"/>
<stop offset="1" stop-color="#00A99D" stop-opacity="0"/>
</radialGradient>
</defs>
</svg>
