<svg width="115" height="104" viewBox="0 0 115 104" fill="none" xmlns="http://www.w3.org/2000/svg">
<path d="M109.334 9.65607L60.0838 97.2061C59.8112 97.687 59.416 98.087 58.9384 98.3653C58.4607 98.6436 57.9178 98.7903 57.365 98.7903C56.8122 98.7903 56.2693 98.6436 55.7917 98.3653C55.3141 98.087 54.9188 97.687 54.6463 97.2061L5.39628 9.65607C5.08302 9.09479 4.95046 8.45057 5.01667 7.81121C5.08288 7.17184 5.34463 6.56845 5.76626 6.08327C6.18789 5.59809 6.74887 5.25473 7.37275 5.1C7.99662 4.94526 8.65305 4.98666 9.25253 5.21857L56.2338 23.4811C56.9615 23.7637 57.7686 23.7637 58.4963 23.4811L105.478 5.21233C106.078 4.97906 106.735 4.93692 107.361 5.09169C107.986 5.24645 108.548 5.59056 108.97 6.07693C109.392 6.5633 109.653 7.16819 109.718 7.80886C109.784 8.44952 109.649 9.09467 109.334 9.65607Z" stroke="white" stroke-width="9.375" stroke-linecap="round" stroke-linejoin="round"/>
</svg>
