<svg width="115" height="105" viewBox="0 0 115 105" fill="none" xmlns="http://www.w3.org/2000/svg">
<path d="M109.349 10.2204L60.0992 97.7704C59.8266 98.2514 59.4314 98.6514 58.9538 98.9297C58.4761 99.208 57.9332 99.3547 57.3805 99.3547C56.8277 99.3547 56.2848 99.208 55.8071 98.9297C55.3295 98.6514 54.9343 98.2514 54.6617 97.7704L5.41169 10.2204C5.09843 9.65916 4.96587 9.01495 5.03208 8.37559C5.09829 7.73622 5.36004 7.13282 5.78167 6.64764C6.2033 6.16247 6.76428 5.81912 7.38816 5.66438C8.01204 5.50964 8.66846 5.55104 9.26794 5.78295L57.3804 57.5644C58.1081 57.847 60.0992 53 77 37.5L105.493 5.7767C106.093 5.54344 106.751 5.5013 107.376 5.65607C108.001 5.81083 108.563 6.15493 108.985 6.6413C109.407 7.12768 109.669 7.73257 109.734 8.37324C109.799 9.0139 109.665 9.65905 109.349 10.2204Z" stroke="white" stroke-width="9.375" stroke-linecap="round" stroke-linejoin="round"/>
</svg>
