<svg width="283" height="241" viewBox="0 0 283 241" fill="none" xmlns="http://www.w3.org/2000/svg">
<path d="M39.0938 0.5C28.7917 0.5 18.9117 4.59245 11.6271 11.8771C4.34246 19.1617 0.25 29.0417 0.25 39.3438V159.406C0.25 169.708 4.34246 179.588 11.6271 186.873C18.9117 194.158 28.7917 198.25 39.0938 198.25H243.906C254.208 198.25 264.088 194.158 271.373 186.873C278.658 179.588 282.75 169.708 282.75 159.406V39.3438C282.75 29.0417 278.658 19.1617 271.373 11.8771C264.088 4.59245 254.208 0.5 243.906 0.5H39.0938ZM21.4375 39.3438C21.4375 29.5975 29.3475 21.6875 39.0938 21.6875H243.906C253.652 21.6875 261.562 29.5975 261.562 39.3438V159.406C261.562 169.152 253.652 177.062 243.906 177.062H39.0938C29.3475 177.062 21.4375 169.152 21.4375 159.406V39.3438ZM53.2188 219.438C50.4091 219.438 47.7145 220.554 45.7278 222.54C43.7411 224.527 42.625 227.222 42.625 230.031C42.625 232.841 43.7411 235.535 45.7278 237.522C47.7145 239.509 50.4091 240.625 53.2188 240.625H229.781C232.591 240.625 235.285 239.509 237.272 237.522C239.259 235.535 240.375 232.841 240.375 230.031C240.375 227.222 239.259 224.527 237.272 222.54C235.285 220.554 232.591 219.438 229.781 219.438H53.2188Z" fill="black"/>
</svg>
