<svg width="226" height="150" viewBox="0 0 226 150" fill="none" xmlns="http://www.w3.org/2000/svg">
<g clip-path="url(#clip0_115521_8)">
<path d="M210.933 109.375V15.625C210.933 14.7786 210.561 14.0462 209.815 13.4277C209.07 12.8092 208.187 12.5 207.167 12.5H18.8333C17.8132 12.5 16.9304 12.8092 16.1849 13.4277C15.4394 14.0462 15.0667 14.7786 15.0667 15.625V109.375C15.0667 110.221 15.4394 110.954 16.1849 111.572C16.9304 112.191 17.8132 112.5 18.8333 112.5H207.167C208.187 112.5 209.07 112.191 209.815 111.572C210.561 110.954 210.933 110.221 210.933 109.375ZM226 15.625V109.375C226 113.672 224.156 117.35 220.468 120.41C216.779 123.47 212.346 125 207.167 125H120.533V137.5H161.967C163.065 137.5 163.968 137.793 164.674 138.379C165.38 138.965 165.733 139.714 165.733 140.625V146.875C165.733 147.786 165.38 148.535 164.674 149.121C163.968 149.707 163.065 150 161.967 150H64.0333C62.9347 150 62.0323 149.707 61.326 149.121C60.6198 148.535 60.2667 147.786 60.2667 146.875V140.625C60.2667 139.714 60.6198 138.965 61.326 138.379C62.0323 137.793 62.9347 137.5 64.0333 137.5H105.467V125H18.8333C13.6542 125 9.22049 123.47 5.53229 120.41C1.8441 117.35 0 113.672 0 109.375V15.625C0 11.3281 1.8441 7.64974 5.53229 4.58984C9.22049 1.52995 13.6542 0 18.8333 0H207.167C212.346 0 216.779 1.52995 220.468 4.58984C224.156 7.64974 226 11.3281 226 15.625Z" fill="#FFFDFD"/>
<g clip-path="url(#clip1_115521_8)">
<path d="M307.963 143.75V-43.75C307.963 -45.4427 307.217 -46.9076 305.726 -48.1445C304.235 -49.3815 302.47 -50 300.429 -50H-76.2373C-78.2776 -50 -80.0432 -49.3815 -81.5342 -48.1445C-83.0252 -46.9076 -83.7707 -45.4427 -83.7707 -43.75V143.75C-83.7707 145.443 -83.0252 146.908 -81.5342 148.145C-80.0432 149.382 -78.2776 150 -76.2373 150H300.429C302.47 150 304.235 149.382 305.726 148.145C307.217 146.908 307.963 145.443 307.963 143.75ZM338.096 -43.75V143.75C338.096 152.344 334.408 159.701 327.031 165.82C319.655 171.94 310.788 175 300.429 175H127.163V200H210.029C212.227 200 214.031 200.586 215.444 201.758C216.856 202.93 217.563 204.427 217.563 206.25V218.75C217.563 220.573 216.856 222.07 215.444 223.242C214.031 224.414 212.227 225 210.029 225H14.1627C11.9654 225 10.1606 224.414 8.74808 223.242C7.33558 222.07 6.62933 220.573 6.62933 218.75V206.25C6.62933 204.427 7.33558 202.93 8.74808 201.758C10.1606 200.586 11.9654 200 14.1627 200H97.0293V175H-76.2373C-86.5957 175 -95.463 171.94 -102.839 165.82C-110.216 159.701 -113.904 152.344 -113.904 143.75V-43.75C-113.904 -52.3438 -110.216 -59.7005 -102.839 -65.8203C-95.463 -71.9401 -86.5957 -75 -76.2373 -75H300.429C310.788 -75 319.655 -71.9401 327.031 -65.8203C334.408 -59.7005 338.096 -52.3438 338.096 -43.75Z" fill="#FFFDFD"/>
</g>
</g>
<defs>
<clipPath id="clip0_115521_8">
<rect width="226" height="150" fill="white"/>
</clipPath>
<clipPath id="clip1_115521_8">
<rect width="452" height="300" fill="white" transform="translate(-113.904 -75)"/>
</clipPath>
</defs>
</svg>
