<svg width="88" height="72" viewBox="0 0 88 72" fill="none" xmlns="http://www.w3.org/2000/svg">
<path d="M29.3333 71.5001V67.3334H33.5V63.1667H12.6666C9.35142 63.1667 6.172 61.8498 3.82779 59.5056C1.48359 57.1614 0.166626 53.982 0.166626 50.6667V13.1667C0.166626 9.85154 1.48359 6.67212 3.82779 4.32791C6.172 1.98371 9.35142 0.666748 12.6666 0.666748H75.1666C78.4818 0.666748 81.6613 1.98371 84.0055 4.32791C86.3497 6.67212 87.6666 9.85154 87.6666 13.1667V50.6667C87.6666 53.982 86.3497 57.1614 84.0055 59.5056C81.6613 61.8498 78.4818 63.1667 75.1666 63.1667H54.3333V67.3334H58.5V71.5001H29.3333ZM37.6666 63.1667V67.3334H50.1666V63.1667H37.6666ZM12.6666 4.83341C10.4565 4.83341 8.33687 5.71139 6.77407 7.27419C5.21127 8.83699 4.33329 10.9566 4.33329 13.1667V50.6667C4.33329 52.8769 5.21127 54.9965 6.77407 56.5593C8.33687 58.1221 10.4565 59.0001 12.6666 59.0001H75.1666C77.3768 59.0001 79.4964 58.1221 81.0592 56.5593C82.622 54.9965 83.5 52.8769 83.5 50.6667V13.1667C83.5 10.9566 82.622 8.83699 81.0592 7.27419C79.4964 5.71139 77.3768 4.83341 75.1666 4.83341H12.6666Z" fill="white"/>
</svg>
